# xmcd
#
# Track frame offsets: 
#        150
#        14924
#        30368
#        50288
#        81698
#        100874
#        119110
#        141481
#        156294
#        170225
#        185168
#        201620
#
# Disc length: 3331 seconds
#
# Revision: 5
# Processed by: cddbd v1.5.2PL0 Copyright (c) Steve Scherf et al.
# Submitted via: ExactAudioCopyFreeDBPlugin 1.0
#
DISCID=c00d010c
DTITLE=Undisputed Truth - Smiling Faces:  The Best of Undisputed Truth
DYEAR=2003
DGENRE=Soul
TTITLE0=Smiling Faces Sometimes
TTITLE1=Papa Was a Rollin' Stone
TTITLE2=Law of The Land
TTITLE3=You Make Your Own Heaven and Hell Right Here on Earth
TTITLE4=UFO's
TTITLE5=Lil' Red Ridin' Hood
TTITLE6=What It Is
TTITLE7=Help Yourself
TTITLE8=I'm a Fool for You
TTITLE9=Higher Than High
TTITLE10=Poontang
TTITLE11=Ball of Confusion (That's What the World is Today)
EXTD=
EXTT0=
EXTT1=
EXTT2=
EXTT3=
EXTT4=
EXTT5=
EXTT6=
EXTT7=
EXTT8=
EXTT9=
EXTT10=
EXTT11=
PLAYORDER=
